<mxfile host="65bd71144e">
    <diagram id="t9AZA2WEyafhQoM2-F2Y" name="Page-1">
        <mxGraphModel dx="1748" dy="1105" grid="1" gridSize="10" guides="1" tooltips="1" connect="1" arrows="1" fold="1" page="1" pageScale="1" pageWidth="827" pageHeight="1169" background="#BDBDBD" math="0" shadow="1">
            <root>
                <mxCell id="0"/>
                <mxCell id="1" parent="0"/>
                <mxCell id="2" value="" style="shape=image;verticalLabelPosition=bottom;verticalAlign=top;imageAspect=0;aspect=fixed;image=data:image/svg+xml,PHN2ZyB4bWxucz0iaHR0cDovL3d3dy53My5vcmcvMjAwMC9zdmciIHZpZXdCb3g9IjAgMCA2MCA0OCI+PGRlZnM+PHN0eWxlPi5jbHMtMXtmaWxsOiMxNjM2ODM7fS5jbHMtMSwuY2xzLTR7ZmlsbC1vcGFjaXR5OjAuODtzdHJva2U6IzMzMzYzODtzdHJva2Utd2lkdGg6MnB4O30uY2xzLTJ7ZmlsbDojMzMzNjM4O30uY2xzLTMsLmNscy00e2ZpbGw6I2ZmZjt9LmNscy00e29wYWNpdHk6MC4yNTt9PC9zdHlsZT48L2RlZnM+PGcgaWQ9IkxheWVyXzIiIGRhdGEtbmFtZT0iTGF5ZXIgMiI+PGcgaWQ9IkxheWVyXzEtMiIgZGF0YS1uYW1lPSJMYXllciAxIj48cGF0aCBjbGFzcz0iY2xzLTEiIGQ9Ik01OSw0My40MWgwQTMuNTksMy41OSwwLDAsMSw1NS4zMSw0N0g0LjY0QTMuNTksMy41OSwwLDAsMSwxLDQzLjQxVjEySDU5Wk01OSw0LjZoMEEzLjU5LDMuNTksMCwwLDAsNTUuMzEsMUg0LjY0QTMuNTksMy41OSwwLDAsMCwxLDQuNTlWMTJINTlaIi8+PGVsbGlwc2UgY2xhc3M9ImNscy0yIiBjeD0iOC4xNCIgY3k9IjYuNSIgcng9IjEuNTMiIHJ5PSIxLjUiLz48ZWxsaXBzZSBjbGFzcz0iY2xzLTIiIGN4PSIxNC4yNCIgY3k9IjYuNSIgcng9IjEuNTMiIHJ5PSIxLjUiLz48ZWxsaXBzZSBjbGFzcz0iY2xzLTIiIGN4PSIyMC4zNCIgY3k9IjYuNSIgcng9IjEuNTMiIHJ5PSIxLjUiLz48cGF0aCBjbGFzcz0iY2xzLTMiIGQ9Ik00OC42NywyMy4xOUg0NC44M1YzNUg0Mi42MVYyMy4xOUgzOC43OFYyMS4yNmg5Ljg5Wk0zOCwzNWgtNy41VjIxLjI2aDcuMnYxLjkzaC01djMuODhoNC42VjI5aC00LjZWMzNIMzhaTTI3LjU3LDM1SDI1LjE1TDE4Ljc2LDI0Ljg5YTUuNDMsNS40MywwLDAsMS0uNC0uOGgtLjA1QTE0Ljc2LDE0Ljc2LDAsMCwxLDE4LjM4LDI2djlIMTYuMjRWMjEuMjZoMi41OEwyNSwzMS4wOWE4LjQ5LDguNDksMCwwLDEsLjUuODRoMGExMywxMywwLDAsMS0uMDktMS44NVYyMS4yNWgyLjEzWk0xNCwzMy44OGExLjMyLDEuMzIsMCwwLDEtMS4zNSwxLjI5aDBhMS4zMiwxLjMyLDAsMCwxLTEuMzUtMS4yOWgwYTEuMzUsMS4zNSwwLDAsMSwyLjcsMFoiLz48cGF0aCBjbGFzcz0iY2xzLTQiIGQ9Ik01OSw0My40MWgwQTMuNTksMy41OSwwLDAsMSw1NS4zMSw0N0g0LjY0QTMuNiwzLjYsMCwwLDEsMSw0My40MVYxMkg1OVpNNTksNC42aDBBMy41OSwzLjU5LDAsMCwwLDU1LjMxLDFINC42NEEzLjYsMy42LDAsMCwwLDEsNC41OVYxMkg1OVoiLz48ZWxsaXBzZSBjbGFzcz0iY2xzLTIiIGN4PSI4LjE0IiBjeT0iNi41IiByeD0iMS41MyIgcnk9IjEuNSIvPjxlbGxpcHNlIGNsYXNzPSJjbHMtMiIgY3g9IjE0LjI0IiBjeT0iNi41IiByeD0iMS41MyIgcnk9IjEuNSIvPjxlbGxpcHNlIGNsYXNzPSJjbHMtMiIgY3g9IjIwLjM0IiBjeT0iNi41IiByeD0iMS41MyIgcnk9IjEuNSIvPjwvZz48L2c+PC9zdmc+" vertex="1" parent="1">
                    <mxGeometry x="120" y="110" width="60" height="48" as="geometry"/>
                </mxCell>
            </root>
        </mxGraphModel>
    </diagram>
</mxfile>